<svg width="245" height="48" viewBox="0 0 245 48" fill="none" xmlns="http://www.w3.org/2000/svg">
<g clip-path="url(#clip0_152_714)">
<path d="M229.341 33.4891V33.0421L244.889 14.7361V9.6001H224.621C222.914 9.6001 221.423 9.9841 220.554 10.3801C216.796 12.0871 214.485 16.4731 214.331 21.6001H213.661L214.22 9.6001H208.794L208.851 23.1631V38.5681H214.948V29.1061C214.948 25.9801 215.254 23.3491 215.87 21.2071C216.487 19.0681 217.37 17.4601 218.528 16.3801C219.682 15.3001 221.08 14.7631 222.721 14.7631C233.555 14.7631 238.72 14.2141 241.383 13.1011L241.651 13.6441C240.653 14.1571 239.715 14.7811 239.114 15.2881C237.463 16.6831 232.615 20.7601 229.666 24.2341L221.901 33.3781V38.5681H245V33.4891H229.341Z" fill="#F7F3EF"/>
<path d="M82.0553 0V8.595C82.0553 9.525 82.1004 10.557 82.1966 11.694C82.2898 12.828 82.4191 14.037 82.5874 15.321C82.7558 16.605 82.9331 17.991 83.1195 19.479H82.4491C82.0764 17.211 81.4692 15.276 80.6304 13.674C79.7917 12.075 78.6915 10.866 77.3297 10.047C75.9679 9.228 74.3386 8.82 72.4357 8.82C70.124 8.82 68.1189 9.417 66.4234 10.605C64.728 11.796 63.4113 13.518 62.4794 15.768C61.5475 18.021 61.0815 20.763 61.0815 24C61.0815 27.237 61.5836 30.213 62.5906 32.484C63.5977 34.755 64.9775 36.456 66.7301 37.59C68.4826 38.724 70.4396 39.294 72.601 39.294C74.3897 39.294 75.9288 38.931 77.2155 38.205C78.5021 37.479 79.5813 36.372 80.4591 34.884C81.3339 33.396 81.9982 31.572 82.4431 29.415H83.0594L82.7227 38.568H88.2029L88.0917 25.842L88.2089 0H82.0553ZM82.0012 24.447C82.0012 25.488 81.8419 26.577 81.5263 27.711C81.2076 28.845 80.7236 29.907 80.0713 30.891C79.419 31.878 78.6073 32.676 77.6393 33.291C76.6683 33.906 75.532 34.212 74.2274 34.212C72.7724 34.212 71.5339 33.792 70.5088 32.955C69.4837 32.118 68.6901 30.945 68.1309 29.439C67.5718 27.933 67.2922 26.193 67.2922 24.219C67.2922 22.245 67.5718 20.442 68.1309 18.918C68.6901 17.394 69.5017 16.203 70.5629 15.345C71.6271 14.49 72.8836 14.061 74.3386 14.061C75.4208 14.061 76.3707 14.283 77.1914 14.73C78.0121 15.177 78.7306 15.762 79.3438 16.488C79.9601 17.214 80.4621 18.006 80.8529 18.861C81.2437 19.716 81.5323 20.583 81.7187 21.456C81.905 22.332 81.9982 23.139 81.9982 23.883V24.441L82.0012 24.447Z" fill="#F7F3EF"/>
<path d="M112.225 10.5479C110.1 9.39589 107.677 8.81689 104.953 8.81689C102.23 8.81689 99.9208 9.3749 97.7955 10.4909C95.6702 11.6069 93.9837 13.2899 92.7332 15.5429C91.4826 17.7959 90.8604 20.6309 90.8604 24.0539C90.8604 27.4769 91.4766 30.2129 92.7061 32.4809C93.9356 34.7519 95.6131 36.4529 97.7384 37.5869C99.8637 38.7209 102.287 39.2909 105.01 39.2909C107.734 39.2909 110.042 38.7419 112.168 37.6439C114.293 36.5459 115.971 34.8809 117.2 32.6489C118.43 30.4169 119.046 27.5879 119.046 24.1649C119.046 20.7419 118.439 17.9519 117.227 15.6809C116.016 13.4129 114.347 11.6999 112.222 10.5449L112.225 10.5479ZM111.972 29.8889C111.356 31.3949 110.472 32.5409 109.315 33.3209C108.158 34.1009 106.76 34.4939 105.121 34.4939C102.623 34.4939 100.657 33.5639 99.2204 31.7039C97.7835 29.8439 97.068 27.2759 97.068 24.0029C97.068 21.8459 97.3746 20.0129 97.9909 18.5039C98.6072 16.9979 99.5 15.8429 100.675 15.0449C101.851 14.2439 103.24 13.8449 104.842 13.8449C106.444 13.8449 107.953 14.2739 109.15 15.1289C110.343 15.9839 111.266 17.2049 111.918 18.7859C112.571 20.3669 112.898 22.2569 112.898 24.4499C112.898 26.6429 112.592 28.3859 111.975 29.8919L111.972 29.8889Z" fill="#F7F3EF"/>
<path d="M137.525 8.82007C135.474 8.82007 133.74 9.28507 132.324 10.2151C130.908 11.1451 129.778 12.5491 128.939 14.4301C128.1 16.3081 127.532 18.6991 127.235 21.6031H126.564L127.123 9.60307H121.697L121.754 23.1661V38.5711H127.851V28.5811C127.851 25.4551 128.157 22.8241 128.774 20.6821C129.39 18.5431 130.274 16.9351 131.431 15.8551C132.585 14.7751 133.983 14.2381 135.625 14.2381C137.528 14.2381 138.925 14.9641 139.818 16.4131C140.714 17.8651 141.162 20.1331 141.162 23.2231V38.5711H147.258V22.7761C147.258 18.0511 146.456 14.5441 144.854 12.2551C143.251 9.96607 140.807 8.82307 137.528 8.82307L137.525 8.82007Z" fill="#F7F3EF"/>
<path d="M170.841 0V8.595C170.841 9.525 170.887 10.557 170.983 11.694C171.076 12.828 171.205 14.037 171.374 15.321C171.542 16.605 171.719 17.991 171.906 19.479H171.235C170.863 17.211 170.255 15.276 169.417 13.674C168.578 12.075 167.478 10.866 166.116 10.047C164.754 9.228 163.125 8.82 161.222 8.82C158.91 8.82 156.905 9.417 155.21 10.605C153.514 11.796 152.197 13.518 151.266 15.768C150.334 18.021 149.868 20.763 149.868 24C149.868 27.237 150.37 30.213 151.377 32.484C152.384 34.755 153.764 36.456 155.516 37.59C157.269 38.724 159.226 39.294 161.387 39.294C163.176 39.294 164.715 38.931 166.002 38.205C167.288 37.479 168.367 36.372 169.245 34.884C170.12 33.396 170.784 31.572 171.229 29.415H171.846L171.509 38.568H176.989L176.878 25.842L176.992 0H170.838H170.841ZM170.784 24.447C170.784 25.488 170.625 26.577 170.309 27.711C169.991 28.845 169.507 29.907 168.854 30.891C168.202 31.878 167.39 32.676 166.422 33.291C165.451 33.906 164.315 34.212 163.01 34.212C161.556 34.212 160.317 33.792 159.292 32.955C158.267 32.118 157.473 30.945 156.914 29.439C156.355 27.933 156.075 26.193 156.075 24.219C156.075 22.245 156.355 20.442 156.914 18.918C157.473 17.394 158.285 16.203 159.346 15.345C160.41 14.49 161.667 14.061 163.122 14.061C164.204 14.061 165.154 14.283 165.975 14.73C166.795 15.177 167.514 15.762 168.127 16.488C168.743 17.214 169.245 18.006 169.636 18.861C170.027 19.716 170.315 20.583 170.502 21.456C170.688 22.332 170.781 23.139 170.781 23.883V24.441L170.784 24.447Z" fill="#F7F3EF"/>
<path d="M200.365 30.4741C200.121 31.2181 199.739 31.8961 199.219 32.5111C198.696 33.1261 198.008 33.6091 197.151 33.9631C196.294 34.3171 195.23 34.4941 193.965 34.4941C191.241 34.4941 189.164 33.6301 187.73 31.8991C186.371 30.2611 185.665 27.8911 185.593 24.8071L205.713 24.5041C205.935 22.0861 205.815 19.9081 205.349 17.9731C204.883 16.0381 204.11 14.3911 203.028 13.0351C201.946 11.6761 200.596 10.6351 198.973 9.90907C197.35 9.18307 195.477 8.82007 193.351 8.82007C191.076 8.82007 189.083 9.23107 187.366 10.0471C185.65 10.8661 184.225 11.9911 183.088 13.4221C181.952 14.8561 181.092 16.5211 180.515 18.4171C179.938 20.3161 179.649 22.3441 179.649 24.5011C179.649 26.6581 179.947 28.6981 180.545 30.5011C181.14 32.3071 182.027 33.8701 183.203 35.1901C184.378 36.5101 185.851 37.5241 187.622 38.2321C189.392 38.9371 191.473 39.2941 193.856 39.2941C195.907 39.2941 197.695 39.0241 199.225 38.4841C200.752 37.9441 202.039 37.2001 203.085 36.2521C204.128 35.3041 204.922 34.2061 205.463 32.9581C206.004 31.7131 206.311 30.3631 206.386 28.9111L200.795 28.2961C200.755 29.0041 200.617 29.7301 200.374 30.4741H200.365ZM189.095 15.1531C190.249 14.2801 191.668 13.8421 193.345 13.8421C194.912 13.8421 196.216 14.2051 197.259 14.9311C198.302 15.6571 199.066 16.6981 199.553 18.0571C199.842 18.8641 200.013 19.7761 200.079 20.7871L185.86 21.0061C186.007 20.2261 186.206 19.4911 186.467 18.8101C187.063 17.2471 187.94 16.0291 189.095 15.1531Z" fill="#F7F3EF"/>
<path d="M36.0734 0H33.6685C32.1715 8.916 26.6672 17.058 18.0366 21.6V48H20.4415C21.9386 39.084 27.4428 30.942 36.0734 26.4V0Z" fill="#7D59FF"/>
<path d="M18.0368 0H15.6319C14.1348 8.916 8.63061 17.058 0 21.6V24H18.0368V0Z" fill="#7D59FF"/>
<path d="M36.0737 48H38.4786C39.9757 39.084 45.4799 30.942 54.1105 26.4V24H36.0737V48Z" fill="#7D59FF"/>
</g>
<defs>
<clipPath id="clip0_152_714">
<rect width="245" height="48" fill="white"/>
</clipPath>
</defs>
</svg>
